<svg xmlns="http://www.w3.org/2000/svg" xmlns:xlink="http://www.w3.org/1999/xlink" width="500" zoomAndPan="magnify" viewBox="0 0 375 374.999991" height="500" preserveAspectRatio="xMidYMid meet" version="1.0"><defs><g/><clipPath id="1029e4ab59"><path d="M 57 126 L 181.5 126 L 181.5 266.113281 L 57 266.113281 Z M 57 126 " clip-rule="nonzero"/></clipPath><clipPath id="f54d1276f2"><path d="M 37.5 132 L 74 132 L 74 266 L 37.5 266 Z M 37.5 132 " clip-rule="nonzero"/></clipPath><clipPath id="8017672423"><path d="M 199 200.742188 L 366.917969 200.742188 L 366.917969 223.992188 L 199 223.992188 Z M 199 200.742188 " clip-rule="nonzero"/></clipPath></defs><rect x="-37.5" width="450" fill="#ffffff" y="-37.499999" height="449.999989" fill-opacity="1"/><rect x="-37.5" width="450" fill="#f8f4ef" y="-37.499999" height="449.999989" fill-opacity="1"/><g clip-path="url(#1029e4ab59)"><path fill="#4d3e3e" d="M 181.632812 229.296875 C 173.464844 232.746094 165.253906 236.070312 157.039062 239.367188 L 144.691406 244.261719 C 142.632812 245.066406 140.59375 245.941406 138.480469 246.578125 C 136.367188 247.230469 134.25 247.851562 132.152344 248.554688 L 81.738281 264.929688 L 78.339844 266.03125 L 77.804688 262.5 L 58.398438 134.117188 L 57.90625 130.863281 L 61.1875 130.640625 L 113.546875 127.101562 L 120.089844 126.648438 C 122.269531 126.460938 124.445312 126.230469 126.640625 126.285156 L 139.789062 126.300781 C 148.558594 126.320312 157.328125 126.417969 166.105469 126.585938 C 157.433594 127.9375 148.753906 129.214844 140.066406 130.414062 L 127.039062 132.195312 C 124.871094 132.546875 122.683594 132.613281 120.5 132.71875 L 113.953125 133.148438 L 61.597656 136.683594 L 64.386719 133.210938 L 83.796875 261.59375 L 79.863281 259.167969 L 130.28125 242.789062 C 132.386719 242.125 134.46875 241.382812 136.558594 240.671875 C 138.644531 239.945312 140.808594 239.453125 142.949219 238.894531 L 155.8125 235.597656 C 164.402344 233.441406 172.996094 231.304688 181.632812 229.296875 " fill-opacity="1" fill-rule="nonzero"/></g><path fill="#4d3e3e" d="M 89.1875 154.546875 L 85.464844 129.917969 C 84.34375 122.519531 86.195312 115.234375 90.671875 109.402344 C 95.15625 103.566406 101.726562 99.894531 109.175781 99.0625 C 124.425781 97.363281 138.707031 108.316406 141 123.484375 L 144.722656 148.113281 L 138.730469 149.019531 L 135.007812 124.390625 C 133.195312 112.402344 121.921875 103.734375 109.84375 105.082031 C 104.050781 105.730469 98.949219 108.574219 95.480469 113.09375 C 92.015625 117.605469 90.585938 123.257812 91.453125 129.011719 L 95.179688 153.640625 L 89.1875 154.546875 " fill-opacity="1" fill-rule="nonzero"/><path fill="#4d3e3e" d="M 133.902344 149.4375 C 134.554688 153.734375 138.582031 156.828125 142.90625 156.347656 C 147.226562 155.863281 150.203125 151.988281 149.554688 147.695312 C 148.902344 143.398438 144.875 140.304688 140.550781 140.785156 C 136.230469 141.269531 133.253906 145.144531 133.902344 149.4375 " fill-opacity="1" fill-rule="nonzero"/><path fill="#4d3e3e" d="M 84.355469 154.964844 C 85.007812 159.261719 89.035156 162.355469 93.359375 161.871094 C 97.679688 161.390625 100.65625 157.515625 100.007812 153.21875 C 99.359375 148.921875 95.328125 145.832031 91.007812 146.3125 C 86.683594 146.796875 83.707031 150.667969 84.355469 154.964844 " fill-opacity="1" fill-rule="nonzero"/><g clip-path="url(#f54d1276f2)"><path fill="#4d3e3e" d="M 52.847656 132.78125 C 53.113281 135.417969 53.328125 138.050781 53.496094 140.679688 C 53.699219 143.308594 53.816406 145.929688 53.953125 148.554688 C 54 149.867188 54.132812 151.183594 54.105469 152.488281 C 54.082031 153.136719 53.945312 153.777344 53.867188 154.425781 C 53.78125 155.070312 53.726562 155.714844 53.664062 156.363281 L 52.933594 164.128906 L 50 195.191406 L 44.140625 257.316406 L 39.621094 254.402344 C 40.125 254.121094 40.460938 253.960938 40.875 253.769531 C 41.269531 253.585938 41.660156 253.414062 42.054688 253.253906 C 42.84375 252.925781 43.640625 252.640625 44.449219 252.382812 C 46.066406 251.882812 47.710938 251.457031 49.398438 251.152344 C 51.09375 250.914062 52.839844 251.0625 54.539062 251.261719 C 56.242188 251.488281 57.921875 251.882812 59.527344 252.4375 C 62.746094 253.546875 65.617188 255.410156 67.933594 257.664062 C 70.261719 259.917969 72.066406 262.550781 73.464844 265.308594 C 71.378906 263.019531 69.027344 261.035156 66.503906 259.519531 C 63.96875 258.015625 61.214844 257.089844 58.46875 256.734375 C 57.089844 256.566406 55.710938 256.546875 54.347656 256.65625 C 52.980469 256.742188 51.644531 257.078125 50.304688 257.289062 C 48.953125 257.4375 47.601562 257.722656 46.292969 258.15625 C 45.636719 258.363281 44.988281 258.597656 44.359375 258.855469 C 44.042969 258.984375 43.730469 259.121094 43.429688 259.261719 C 43.144531 259.390625 42.792969 259.570312 42.625 259.664062 L 37.566406 262.449219 L 38.105469 256.746094 L 43.96875 194.621094 L 46.898438 163.558594 L 47.632812 155.792969 C 47.691406 155.144531 47.761719 154.5 47.796875 153.851562 C 47.839844 153.203125 47.828125 152.546875 47.925781 151.90625 C 48.140625 150.617188 48.519531 149.347656 48.808594 148.070312 C 49.433594 145.519531 50.039062 142.964844 50.730469 140.414062 C 51.390625 137.867188 52.089844 135.320312 52.847656 132.78125 " fill-opacity="1" fill-rule="nonzero"/></g><g fill="#4d3e3e" fill-opacity="1"><g transform="translate(135.618783, 206.758977)"><g><path d="M 32.921875 -49.53125 C 32.648438 -49.78125 32.640625 -50.039062 32.890625 -50.3125 C 33.890625 -51.5 34.582031 -52.859375 34.96875 -54.390625 C 35.351562 -55.929688 35.34375 -57.273438 34.9375 -58.421875 C 34.875 -58.679688 34.632812 -58.859375 34.21875 -58.953125 C 33.46875 -59.128906 32.332031 -58.925781 30.8125 -58.34375 C 29.289062 -57.757812 27.554688 -56.800781 25.609375 -55.46875 C 23.671875 -54.144531 21.738281 -52.421875 19.8125 -50.296875 C 15.78125 -45.804688 14.097656 -42.285156 14.765625 -39.734375 C 15.066406 -38.535156 15.910156 -37.722656 17.296875 -37.296875 C 18.140625 -37.117188 18.957031 -36.992188 19.75 -36.921875 C 20.4375 -36.992188 21.25 -36.972656 22.1875 -36.859375 L 22.265625 -36.859375 L 22.34375 -36.78125 L 22.421875 -36.78125 C 22.429688 -36.726562 22.460938 -36.703125 22.515625 -36.703125 L 22.515625 -36.609375 C 22.566406 -36.617188 22.59375 -36.597656 22.59375 -36.546875 L 22.59375 -36.46875 L 22.671875 -36.390625 L 22.6875 -36.234375 C 22.6875 -36.179688 22.671875 -36.15625 22.640625 -36.15625 C 22.617188 -36.15625 22.609375 -36.15625 22.609375 -36.15625 L 22.609375 -36 C 22.609375 -36 22.59375 -35.992188 22.5625 -35.984375 C 22.539062 -35.984375 22.53125 -35.957031 22.53125 -35.90625 C 22.53125 -35.90625 22.515625 -35.90625 22.484375 -35.90625 C 22.460938 -35.90625 22.457031 -35.878906 22.46875 -35.828125 L 22.390625 -35.828125 L 22.390625 -35.75 L 22.3125 -35.75 C 21.28125 -35.351562 19.878906 -34.492188 18.109375 -33.171875 C 16.347656 -31.847656 14.613281 -30.179688 12.90625 -28.171875 C 11.4375 -26.492188 9.960938 -24.34375 8.484375 -21.71875 C 7.015625 -19.09375 6.132812 -16.144531 5.84375 -12.875 C 5.519531 -8.414062 6.269531 -5.113281 8.09375 -2.96875 C 8.851562 -2.0625 9.617188 -1.515625 10.390625 -1.328125 C 11.160156 -1.140625 11.546875 -1.046875 11.546875 -1.046875 C 17.648438 -1.578125 25.234375 -7.019531 34.296875 -17.375 C 34.597656 -17.695312 34.859375 -17.707031 35.078125 -17.40625 C 35.460938 -17.207031 35.5 -16.945312 35.1875 -16.625 C 25.519531 -5.675781 17.441406 -0.0820312 10.953125 0.15625 C 7.222656 0.289062 4.4375 -0.578125 2.59375 -2.453125 C 0.46875 -4.578125 -0.523438 -8.03125 -0.390625 -12.8125 C -0.273438 -15.382812 0.515625 -18.179688 1.984375 -21.203125 C 3.453125 -24.222656 5.347656 -26.929688 7.671875 -29.328125 L 8.140625 -29.734375 C 9.347656 -30.984375 10.632812 -32.222656 12 -33.453125 C 13.375 -34.691406 14.914062 -35.625 16.625 -36.25 C 15.769531 -36.488281 14.925781 -36.785156 14.09375 -37.140625 C 13.269531 -37.503906 12.535156 -38.019531 11.890625 -38.6875 C 10.585938 -40 9.972656 -41.628906 10.046875 -43.578125 C 10.191406 -45.578125 10.769531 -47.421875 11.78125 -49.109375 C 12.800781 -50.796875 13.976562 -52.296875 15.3125 -53.609375 C 16.65625 -54.921875 17.84375 -55.960938 18.875 -56.734375 C 21.070312 -58.328125 23.359375 -59.632812 25.734375 -60.65625 C 28.117188 -61.6875 30.046875 -62.179688 31.515625 -62.140625 C 33.660156 -62.054688 35.128906 -61.09375 35.921875 -59.25 C 35.921875 -59.195312 35.9375 -59.144531 35.96875 -59.09375 C 36 -59.039062 36.015625 -58.988281 36.015625 -58.9375 C 36.015625 -58.882812 36.03125 -58.84375 36.0625 -58.8125 C 36.09375 -58.789062 36.113281 -58.753906 36.125 -58.703125 C 36.582031 -57.347656 36.59375 -55.8125 36.15625 -54.09375 C 35.71875 -52.375 34.921875 -50.863281 33.765625 -49.5625 C 33.515625 -49.289062 33.234375 -49.28125 32.921875 -49.53125 Z M 32.921875 -49.53125 "/></g></g></g><g fill="#4d3e3e" fill-opacity="1"><g transform="translate(170.205211, 205.500395)"><g><path d="M 20.40625 -16.796875 C 20.71875 -16.648438 20.800781 -16.390625 20.65625 -16.015625 C 20.613281 -15.847656 20.273438 -15.113281 19.640625 -13.8125 C 19.003906 -12.507812 18.195312 -10.90625 17.21875 -9 C 16.238281 -7.101562 15.140625 -5.210938 13.921875 -3.328125 C 12.703125 -1.453125 11.460938 0.132812 10.203125 1.4375 L 10.125 1.453125 C 9.375 2.253906 8.632812 2.882812 7.90625 3.34375 C 7.300781 3.675781 6.550781 3.859375 5.65625 3.890625 C 5.289062 3.898438 4.9375 3.882812 4.59375 3.84375 C 4.25 3.8125 3.914062 3.722656 3.59375 3.578125 C 3.0625 3.378906 2.46875 3.03125 1.8125 2.53125 C 1.164062 2.03125 0.644531 1.285156 0.25 0.296875 C -0.207031 -0.835938 -0.53125 -2.226562 -0.71875 -3.875 C -0.914062 -5.519531 -0.96875 -7.625 -0.875 -10.1875 C -0.789062 -12.757812 -0.609375 -15.972656 -0.328125 -19.828125 C -0.078125 -22.929688 0.253906 -25.929688 0.671875 -28.828125 C 1.097656 -31.734375 1.578125 -34.476562 2.109375 -37.0625 L -2.8125 -37.984375 C -6.769531 -38.835938 -9.617188 -38.65625 -11.359375 -37.4375 C -11.984375 -37 -12.332031 -36.460938 -12.40625 -35.828125 C -12.5 -35.398438 -12.722656 -35.234375 -13.078125 -35.328125 C -13.503906 -35.421875 -13.671875 -35.648438 -13.578125 -36.015625 C -13.453125 -36.910156 -12.9375 -37.691406 -12.03125 -38.359375 C -9.976562 -39.753906 -6.835938 -40 -2.609375 -39.09375 C -1.921875 -38.96875 -1.164062 -38.828125 -0.34375 -38.671875 C 0.476562 -38.515625 1.390625 -38.347656 2.390625 -38.171875 C 3.566406 -43.367188 4.984375 -47.710938 6.640625 -51.203125 C 8.296875 -54.703125 10.070312 -57.039062 11.96875 -58.21875 C 13.457031 -59.039062 14.894531 -59.171875 16.28125 -58.609375 C 17.40625 -58.078125 18.148438 -57.109375 18.515625 -55.703125 L 18.515625 -55.625 C 19.003906 -53.632812 18.828125 -50.941406 17.984375 -47.546875 C 17.140625 -44.160156 15.96875 -40.660156 14.46875 -37.046875 C 17.101562 -36.929688 19.710938 -37.023438 22.296875 -37.328125 C 24.878906 -37.628906 27.203125 -38.234375 29.265625 -39.140625 C 29.691406 -39.273438 29.960938 -39.15625 30.078125 -38.78125 C 30.203125 -38.425781 30.101562 -38.1875 29.78125 -38.0625 C 28.175781 -37.332031 26.382812 -36.796875 24.40625 -36.453125 C 22.425781 -36.117188 20.382812 -35.914062 18.28125 -35.84375 C 17.601562 -35.8125 16.894531 -35.796875 16.15625 -35.796875 C 15.425781 -35.796875 14.695312 -35.8125 13.96875 -35.84375 C 12.613281 -32.59375 11.109375 -29.503906 9.453125 -26.578125 C 7.804688 -23.660156 6.253906 -21.335938 4.796875 -19.609375 C 4.796875 -19.554688 4.769531 -19.53125 4.71875 -19.53125 C 4.238281 -15.519531 3.992188 -12.21875 3.984375 -9.625 C 3.972656 -7.03125 4.097656 -4.972656 4.359375 -3.453125 C 4.628906 -1.941406 4.960938 -0.84375 5.359375 -0.15625 C 5.753906 0.53125 6.132812 0.976562 6.5 1.1875 C 7.195312 1.53125 7.851562 1.515625 8.46875 1.140625 C 9.082031 0.773438 9.390625 0.59375 9.390625 0.59375 C 10.609375 -0.644531 11.804688 -2.21875 12.984375 -4.125 C 14.171875 -6.039062 15.269531 -7.929688 16.28125 -9.796875 C 17.289062 -11.660156 18.097656 -13.234375 18.703125 -14.515625 C 19.316406 -15.804688 19.625 -16.453125 19.625 -16.453125 C 19.820312 -16.828125 20.082031 -16.941406 20.40625 -16.796875 Z M 16.53125 -55.859375 C 15.90625 -55.835938 15.097656 -55.253906 14.109375 -54.109375 C 13.128906 -52.972656 12.085938 -51.082031 10.984375 -48.4375 C 9.878906 -45.800781 8.804688 -42.15625 7.765625 -37.5 C 8.671875 -37.375 9.566406 -37.289062 10.453125 -37.25 C 11.347656 -37.207031 12.265625 -37.148438 13.203125 -37.078125 C 14.703125 -40.648438 15.890625 -44.101562 16.765625 -47.4375 C 17.648438 -50.78125 17.867188 -53.414062 17.421875 -55.34375 C 17.296875 -55.707031 17 -55.878906 16.53125 -55.859375 Z M 5.34375 -24.265625 C 5.300781 -23.847656 5.25 -23.429688 5.1875 -23.015625 C 5.125 -22.597656 5.078125 -22.175781 5.046875 -21.75 C 6.285156 -23.46875 7.578125 -25.570312 8.921875 -28.0625 C 10.273438 -30.5625 11.554688 -33.191406 12.765625 -35.953125 C 11.878906 -36.023438 10.988281 -36.082031 10.09375 -36.125 C 9.207031 -36.175781 8.34375 -36.242188 7.5 -36.328125 C 6.78125 -32.992188 6.0625 -28.972656 5.34375 -24.265625 Z M 5.34375 -24.265625 "/></g></g></g><g fill="#4d3e3e" fill-opacity="1"><g transform="translate(190.406829, 204.765268)"><g><path d="M 23.78125 -17 C 24.050781 -16.800781 24.113281 -16.515625 23.96875 -16.140625 C 20.976562 -11.890625 18.378906 -8.617188 16.171875 -6.328125 C 13.972656 -4.046875 11.867188 -2.503906 9.859375 -1.703125 C 9.859375 -1.648438 9.84375 -1.625 9.8125 -1.625 C 9.789062 -1.625 9.78125 -1.625 9.78125 -1.625 C 8.539062 -1.144531 7.375 -0.890625 6.28125 -0.859375 C 5.4375 -0.828125 4.441406 -1.050781 3.296875 -1.53125 C 2.148438 -2.019531 1.101562 -2.878906 0.15625 -4.109375 C -0.550781 -5.117188 -1.109375 -6.5625 -1.515625 -8.4375 C -1.929688 -10.320312 -1.617188 -12.773438 -0.578125 -15.796875 C 1.179688 -20.847656 3.203125 -24.425781 5.484375 -26.53125 C 7.773438 -28.632812 9.804688 -29.71875 11.578125 -29.78125 C 13.316406 -29.851562 14.679688 -29.144531 15.671875 -27.65625 C 15.785156 -27.5 15.882812 -27.34375 15.96875 -27.1875 C 16.050781 -27.03125 16.125 -26.820312 16.1875 -26.5625 C 16.300781 -26.25 16.359375 -25.988281 16.359375 -25.78125 C 16.492188 -25.269531 16.503906 -24.65625 16.390625 -23.9375 C 16.285156 -23.226562 16.039062 -22.414062 15.65625 -21.5 C 14.769531 -19.738281 13.601562 -18.332031 12.15625 -17.28125 C 10.707031 -16.238281 9.320312 -15.476562 8 -15 C 6.675781 -14.53125 5.753906 -14.234375 5.234375 -14.109375 C 4.523438 -11.847656 4.234375 -9.757812 4.359375 -7.84375 C 4.484375 -5.925781 4.984375 -4.484375 5.859375 -3.515625 C 6.785156 -2.503906 7.976562 -2.234375 9.4375 -2.703125 L 9.515625 -2.703125 C 11.148438 -3.390625 13.019531 -4.78125 15.125 -6.875 C 17.226562 -8.976562 19.851562 -12.289062 23 -16.8125 C 23.25 -17.082031 23.507812 -17.144531 23.78125 -17 Z M 5.8125 -15.71875 L 5.65625 -15.46875 C 6.382812 -15.65625 7.316406 -15.988281 8.453125 -16.46875 C 9.597656 -16.957031 10.738281 -17.65625 11.875 -18.5625 C 13.019531 -19.46875 13.9375 -20.617188 14.625 -22.015625 C 15.40625 -23.617188 15.5625 -25.015625 15.09375 -26.203125 L 14.609375 -26.8125 C 14.171875 -27.070312 13.695312 -27.082031 13.1875 -26.84375 C 12.363281 -26.550781 11.3125 -25.632812 10.03125 -24.09375 C 8.75 -22.550781 7.34375 -19.757812 5.8125 -15.71875 Z M 5.8125 -15.71875 "/></g></g></g><g fill="#4d3e3e" fill-opacity="1"><g transform="translate(213.831276, 203.912865)"><g><path d="M 24.484375 -17.171875 C 24.804688 -17.023438 24.894531 -16.769531 24.75 -16.40625 C 23.4375 -13.375 21.984375 -10.632812 20.390625 -8.1875 C 18.804688 -5.738281 17.203125 -3.75 15.578125 -2.21875 C 15.523438 -2.164062 15.472656 -2.113281 15.421875 -2.0625 C 15.378906 -2.007812 15.304688 -1.929688 15.203125 -1.828125 C 13.265625 -0.015625 11.566406 0.921875 10.109375 0.984375 L 10.03125 0.984375 C 8.882812 1.023438 7.925781 0.554688 7.15625 -0.421875 C 6.488281 -1.390625 6.113281 -2.660156 6.03125 -4.234375 C 5.945312 -5.804688 6.066406 -7.515625 6.390625 -9.359375 C 6.710938 -11.203125 7.191406 -12.972656 7.828125 -14.671875 C 7.140625 -14.546875 6.242188 -14.4375 5.140625 -14.34375 C 4.046875 -14.25 2.929688 -14.269531 1.796875 -14.40625 C 0.660156 -14.550781 -0.226562 -14.957031 -0.875 -15.625 C -2.082031 -16.789062 -2.625 -18.164062 -2.5 -19.75 C -2.375 -21.332031 -1.773438 -23.347656 -0.703125 -25.796875 C -0.515625 -26.429688 -0.0546875 -26.84375 0.671875 -27.03125 C 1.398438 -27.207031 2.003906 -27.066406 2.484375 -26.609375 L 3.234375 -26.015625 C 3.816406 -25.566406 4.195312 -24.988281 4.375 -24.28125 C 4.5625 -23.582031 4.515625 -22.890625 4.234375 -22.203125 C 3.847656 -21.234375 3.476562 -20.175781 3.125 -19.03125 C 2.769531 -17.882812 2.765625 -17.0625 3.109375 -16.5625 C 3.378906 -16.15625 3.957031 -15.96875 4.84375 -16 C 5.894531 -15.976562 7.082031 -16.203125 8.40625 -16.671875 C 9.726562 -17.140625 10.875 -17.601562 11.84375 -18.0625 C 12.46875 -18.34375 13.050781 -18.226562 13.59375 -17.71875 C 14.125 -17.320312 14.273438 -16.753906 14.046875 -16.015625 C 13.484375 -14.367188 13 -12.609375 12.59375 -10.734375 C 12.1875 -8.859375 11.929688 -7.15625 11.828125 -5.625 C 11.722656 -4.09375 11.84375 -3 12.1875 -2.34375 C 12.351562 -2.082031 12.488281 -1.953125 12.59375 -1.953125 C 12.863281 -1.910156 13.140625 -1.945312 13.421875 -2.0625 C 13.703125 -2.175781 13.96875 -2.316406 14.21875 -2.484375 C 15.695312 -3.859375 17.28125 -5.769531 18.96875 -8.21875 C 20.664062 -10.664062 22.25 -13.539062 23.71875 -16.84375 C 23.914062 -17.207031 24.171875 -17.316406 24.484375 -17.171875 Z M 24.484375 -17.171875 "/></g></g></g><g fill="#4d3e3e" fill-opacity="1"><g transform="translate(238.041777, 203.031857)"><g><path d="M 26.453125 -17.25 C 26.609375 -17.207031 26.726562 -17.109375 26.8125 -16.953125 C 26.894531 -16.796875 26.890625 -16.664062 26.796875 -16.5625 C 26.378906 -15.125 25.789062 -13.539062 25.03125 -11.8125 C 24.28125 -10.082031 23.46875 -8.492188 22.59375 -7.046875 C 21.726562 -5.597656 20.867188 -4.515625 20.015625 -3.796875 L 19.859375 -3.71875 C 19.597656 -3.394531 19.226562 -3.039062 18.75 -2.65625 C 18.269531 -2.269531 17.632812 -2.0625 16.84375 -2.03125 C 16.375 -2.019531 15.738281 -2.128906 14.9375 -2.359375 C 13.875 -2.734375 13.171875 -3.269531 12.828125 -3.96875 C 12.484375 -4.664062 12.289062 -5.617188 12.25 -6.828125 C 12.238281 -8.609375 12.453125 -10.710938 12.890625 -13.140625 C 13.328125 -15.566406 13.851562 -17.984375 14.46875 -20.390625 C 15.09375 -22.804688 15.640625 -24.835938 16.109375 -26.484375 L 16.734375 -28.859375 C 17.003906 -29.972656 16.976562 -30.679688 16.65625 -30.984375 C 16.5 -31.085938 16.257812 -31.109375 15.9375 -31.046875 C 15.625 -30.984375 15.34375 -30.894531 15.09375 -30.78125 C 14.78125 -30.5625 14.457031 -30.300781 14.125 -30 C 13.789062 -29.695312 13.453125 -29.328125 13.109375 -28.890625 C 11.941406 -27.640625 10.835938 -26.179688 9.796875 -24.515625 C 8.765625 -22.847656 7.847656 -21.160156 7.046875 -19.453125 C 6.242188 -17.742188 5.617188 -16.195312 5.171875 -14.8125 C 4.722656 -13.4375 4.507812 -12.390625 4.53125 -11.671875 C 4.632812 -10.410156 4.742188 -9.226562 4.859375 -8.125 C 4.972656 -7.03125 5.097656 -6.117188 5.234375 -5.390625 C 5.347656 -4.972656 5.226562 -4.628906 4.875 -4.359375 C 4.675781 -4.035156 4.367188 -3.867188 3.953125 -3.859375 L 3.875 -3.84375 L 3.40625 -3.90625 C 2.039062 -3.957031 1.144531 -4.660156 0.71875 -6.015625 C 0.289062 -7.679688 -0.0351562 -9.582031 -0.265625 -11.71875 C -0.503906 -13.851562 -0.632812 -16.035156 -0.65625 -18.265625 C -0.6875 -20.492188 -0.644531 -22.59375 -0.53125 -24.5625 C -0.425781 -26.539062 -0.242188 -28.195312 0.015625 -29.53125 C 0.171875 -29.945312 0.425781 -30.238281 0.78125 -30.40625 C 1.195312 -30.582031 1.59375 -30.570312 1.96875 -30.375 L 3.421875 -29.5625 C 3.953125 -29.269531 4.347656 -28.835938 4.609375 -28.265625 C 4.867188 -27.703125 4.925781 -27.125 4.78125 -26.53125 C 4.5625 -25.164062 4.421875 -23.550781 4.359375 -21.6875 C 4.296875 -19.820312 4.273438 -17.914062 4.296875 -15.96875 C 5.117188 -18.144531 6.242188 -20.535156 7.671875 -23.140625 C 9.097656 -25.742188 10.613281 -27.941406 12.21875 -29.734375 C 14.082031 -31.742188 15.75 -32.773438 17.21875 -32.828125 C 18.425781 -32.867188 19.414062 -32.347656 20.1875 -31.265625 C 20.96875 -30.191406 21.429688 -29.035156 21.578125 -27.796875 C 21.648438 -27.367188 21.546875 -26.5625 21.265625 -25.375 C 20.992188 -24.1875 20.609375 -22.585938 20.109375 -20.578125 C 19.796875 -19.140625 19.441406 -17.597656 19.046875 -15.953125 C 18.660156 -14.316406 18.328125 -12.722656 18.046875 -11.171875 C 17.765625 -9.617188 17.59375 -8.257812 17.53125 -7.09375 C 17.46875 -5.9375 17.578125 -5.128906 17.859375 -4.671875 C 18.078125 -4.253906 18.265625 -4.128906 18.421875 -4.296875 C 18.679688 -4.304688 18.910156 -4.421875 19.109375 -4.640625 C 19.160156 -4.640625 19.210938 -4.664062 19.265625 -4.71875 C 19.878906 -5.257812 20.582031 -6.148438 21.375 -7.390625 C 22.164062 -8.628906 22.953125 -10.085938 23.734375 -11.765625 C 24.515625 -13.441406 25.160156 -15.15625 25.671875 -16.90625 C 25.867188 -17.226562 26.128906 -17.34375 26.453125 -17.25 Z M 26.453125 -17.25 "/></g></g></g><g fill="#4d3e3e" fill-opacity="1"><g transform="translate(264.217412, 202.07934)"><g><path d="M 23.78125 -17 C 24.050781 -16.800781 24.113281 -16.515625 23.96875 -16.140625 C 20.976562 -11.890625 18.378906 -8.617188 16.171875 -6.328125 C 13.972656 -4.046875 11.867188 -2.503906 9.859375 -1.703125 C 9.859375 -1.648438 9.84375 -1.625 9.8125 -1.625 C 9.789062 -1.625 9.78125 -1.625 9.78125 -1.625 C 8.539062 -1.144531 7.375 -0.890625 6.28125 -0.859375 C 5.4375 -0.828125 4.441406 -1.050781 3.296875 -1.53125 C 2.148438 -2.019531 1.101562 -2.878906 0.15625 -4.109375 C -0.550781 -5.117188 -1.109375 -6.5625 -1.515625 -8.4375 C -1.929688 -10.320312 -1.617188 -12.773438 -0.578125 -15.796875 C 1.179688 -20.847656 3.203125 -24.425781 5.484375 -26.53125 C 7.773438 -28.632812 9.804688 -29.71875 11.578125 -29.78125 C 13.316406 -29.851562 14.679688 -29.144531 15.671875 -27.65625 C 15.785156 -27.5 15.882812 -27.34375 15.96875 -27.1875 C 16.050781 -27.03125 16.125 -26.820312 16.1875 -26.5625 C 16.300781 -26.25 16.359375 -25.988281 16.359375 -25.78125 C 16.492188 -25.269531 16.503906 -24.65625 16.390625 -23.9375 C 16.285156 -23.226562 16.039062 -22.414062 15.65625 -21.5 C 14.769531 -19.738281 13.601562 -18.332031 12.15625 -17.28125 C 10.707031 -16.238281 9.320312 -15.476562 8 -15 C 6.675781 -14.53125 5.753906 -14.234375 5.234375 -14.109375 C 4.523438 -11.847656 4.234375 -9.757812 4.359375 -7.84375 C 4.484375 -5.925781 4.984375 -4.484375 5.859375 -3.515625 C 6.785156 -2.503906 7.976562 -2.234375 9.4375 -2.703125 L 9.515625 -2.703125 C 11.148438 -3.390625 13.019531 -4.78125 15.125 -6.875 C 17.226562 -8.976562 19.851562 -12.289062 23 -16.8125 C 23.25 -17.082031 23.507812 -17.144531 23.78125 -17 Z M 5.8125 -15.71875 L 5.65625 -15.46875 C 6.382812 -15.65625 7.316406 -15.988281 8.453125 -16.46875 C 9.597656 -16.957031 10.738281 -17.65625 11.875 -18.5625 C 13.019531 -19.46875 13.9375 -20.617188 14.625 -22.015625 C 15.40625 -23.617188 15.5625 -25.015625 15.09375 -26.203125 L 14.609375 -26.8125 C 14.171875 -27.070312 13.695312 -27.082031 13.1875 -26.84375 C 12.363281 -26.550781 11.3125 -25.632812 10.03125 -24.09375 C 8.75 -22.550781 7.34375 -19.757812 5.8125 -15.71875 Z M 5.8125 -15.71875 "/></g></g></g><g fill="#4d3e3e" fill-opacity="1"><g transform="translate(287.641859, 201.226936)"><g><path d="M 21.328125 -17.0625 C 21.660156 -16.863281 21.753906 -16.609375 21.609375 -16.296875 C 21.554688 -16.128906 21.210938 -15.394531 20.578125 -14.09375 C 19.941406 -12.789062 19.117188 -11.1875 18.109375 -9.28125 C 17.097656 -7.382812 15.988281 -5.46875 14.78125 -3.53125 C 13.570312 -1.59375 12.3125 0.03125 11 1.34375 C 10.132812 2.207031 9.34375 2.863281 8.625 3.3125 C 8.007812 3.644531 7.257812 3.832031 6.375 3.875 C 5.6875 3.894531 4.945312 3.789062 4.15625 3.5625 C 3.613281 3.363281 3.019531 3.015625 2.375 2.515625 C 1.726562 2.015625 1.175781 1.242188 0.71875 0.203125 C -0.957031 -3.984375 -1.238281 -10.945312 -0.125 -20.6875 C 0.675781 -27.59375 1.75 -33.835938 3.09375 -39.421875 C 4.4375 -45.015625 5.96875 -49.625 7.6875 -53.25 C 9.414062 -56.875 11.238281 -59.25 13.15625 -60.375 C 14.59375 -61.15625 15.972656 -61.253906 17.296875 -60.671875 C 18.523438 -60.148438 19.269531 -59.160156 19.53125 -57.703125 L 19.625 -57.640625 C 20 -56.023438 19.957031 -53.957031 19.5 -51.4375 C 19.039062 -48.925781 18.296875 -46.207031 17.265625 -43.28125 C 16.242188 -40.363281 15.050781 -37.4375 13.6875 -34.5 C 12.332031 -31.570312 10.941406 -28.875 9.515625 -26.40625 C 8.085938 -23.9375 6.71875 -21.941406 5.40625 -20.421875 C 5.40625 -20.367188 5.378906 -20.34375 5.328125 -20.34375 C 4.847656 -16.175781 4.585938 -12.753906 4.546875 -10.078125 C 4.515625 -7.410156 4.644531 -5.296875 4.9375 -3.734375 C 5.226562 -2.171875 5.582031 -1.023438 6 -0.296875 C 6.425781 0.421875 6.828125 0.90625 7.203125 1.15625 C 7.910156 1.5 8.582031 1.472656 9.21875 1.078125 C 9.851562 0.679688 10.171875 0.484375 10.171875 0.484375 L 10.25 0.484375 C 11.457031 -0.804688 12.671875 -2.40625 13.890625 -4.3125 C 15.109375 -6.226562 16.21875 -8.132812 17.21875 -10.03125 C 18.226562 -11.925781 19.035156 -13.515625 19.640625 -14.796875 C 20.253906 -16.078125 20.5625 -16.71875 20.5625 -16.71875 C 20.757812 -17.09375 21.015625 -17.207031 21.328125 -17.0625 Z M 6.015625 -25.25 L 5.640625 -22.5625 C 6.835938 -24.226562 8.097656 -26.253906 9.421875 -28.640625 C 10.742188 -31.023438 12.007812 -33.570312 13.21875 -36.28125 C 14.4375 -39 15.492188 -41.703125 16.390625 -44.390625 C 17.296875 -47.078125 17.941406 -49.554688 18.328125 -51.828125 C 18.722656 -54.109375 18.765625 -55.945312 18.453125 -57.34375 C 18.335938 -57.757812 18.039062 -57.9375 17.5625 -57.875 C 16.9375 -57.851562 16.144531 -57.320312 15.1875 -56.28125 C 14.226562 -55.25 13.210938 -53.519531 12.140625 -51.09375 C 11.078125 -48.664062 10.007812 -45.347656 8.9375 -41.140625 C 7.863281 -36.929688 6.890625 -31.632812 6.015625 -25.25 Z M 6.015625 -25.25 "/></g></g></g><g fill="#4d3e3e" fill-opacity="1"><g transform="translate(308.62952, 200.463206)"><g><path d="M 21.328125 -17.0625 C 21.660156 -16.863281 21.753906 -16.609375 21.609375 -16.296875 C 21.554688 -16.128906 21.210938 -15.394531 20.578125 -14.09375 C 19.941406 -12.789062 19.117188 -11.1875 18.109375 -9.28125 C 17.097656 -7.382812 15.988281 -5.46875 14.78125 -3.53125 C 13.570312 -1.59375 12.3125 0.03125 11 1.34375 C 10.132812 2.207031 9.34375 2.863281 8.625 3.3125 C 8.007812 3.644531 7.257812 3.832031 6.375 3.875 C 5.6875 3.894531 4.945312 3.789062 4.15625 3.5625 C 3.613281 3.363281 3.019531 3.015625 2.375 2.515625 C 1.726562 2.015625 1.175781 1.242188 0.71875 0.203125 C -0.957031 -3.984375 -1.238281 -10.945312 -0.125 -20.6875 C 0.675781 -27.59375 1.75 -33.835938 3.09375 -39.421875 C 4.4375 -45.015625 5.96875 -49.625 7.6875 -53.25 C 9.414062 -56.875 11.238281 -59.25 13.15625 -60.375 C 14.59375 -61.15625 15.972656 -61.253906 17.296875 -60.671875 C 18.523438 -60.148438 19.269531 -59.160156 19.53125 -57.703125 L 19.625 -57.640625 C 20 -56.023438 19.957031 -53.957031 19.5 -51.4375 C 19.039062 -48.925781 18.296875 -46.207031 17.265625 -43.28125 C 16.242188 -40.363281 15.050781 -37.4375 13.6875 -34.5 C 12.332031 -31.570312 10.941406 -28.875 9.515625 -26.40625 C 8.085938 -23.9375 6.71875 -21.941406 5.40625 -20.421875 C 5.40625 -20.367188 5.378906 -20.34375 5.328125 -20.34375 C 4.847656 -16.175781 4.585938 -12.753906 4.546875 -10.078125 C 4.515625 -7.410156 4.644531 -5.296875 4.9375 -3.734375 C 5.226562 -2.171875 5.582031 -1.023438 6 -0.296875 C 6.425781 0.421875 6.828125 0.90625 7.203125 1.15625 C 7.910156 1.5 8.582031 1.472656 9.21875 1.078125 C 9.851562 0.679688 10.171875 0.484375 10.171875 0.484375 L 10.25 0.484375 C 11.457031 -0.804688 12.671875 -2.40625 13.890625 -4.3125 C 15.109375 -6.226562 16.21875 -8.132812 17.21875 -10.03125 C 18.226562 -11.925781 19.035156 -13.515625 19.640625 -14.796875 C 20.253906 -16.078125 20.5625 -16.71875 20.5625 -16.71875 C 20.757812 -17.09375 21.015625 -17.207031 21.328125 -17.0625 Z M 6.015625 -25.25 L 5.640625 -22.5625 C 6.835938 -24.226562 8.097656 -26.253906 9.421875 -28.640625 C 10.742188 -31.023438 12.007812 -33.570312 13.21875 -36.28125 C 14.4375 -39 15.492188 -41.703125 16.390625 -44.390625 C 17.296875 -47.078125 17.941406 -49.554688 18.328125 -51.828125 C 18.722656 -54.109375 18.765625 -55.945312 18.453125 -57.34375 C 18.335938 -57.757812 18.039062 -57.9375 17.5625 -57.875 C 16.9375 -57.851562 16.144531 -57.320312 15.1875 -56.28125 C 14.226562 -55.25 13.210938 -53.519531 12.140625 -51.09375 C 11.078125 -48.664062 10.007812 -45.347656 8.9375 -41.140625 C 7.863281 -36.929688 6.890625 -31.632812 6.015625 -25.25 Z M 6.015625 -25.25 "/></g></g></g><g fill="#4d3e3e" fill-opacity="1"><g transform="translate(329.617191, 199.699476)"><g><path d="M 23.78125 -17 C 24.050781 -16.800781 24.113281 -16.515625 23.96875 -16.140625 C 20.976562 -11.890625 18.378906 -8.617188 16.171875 -6.328125 C 13.972656 -4.046875 11.867188 -2.503906 9.859375 -1.703125 C 9.859375 -1.648438 9.84375 -1.625 9.8125 -1.625 C 9.789062 -1.625 9.78125 -1.625 9.78125 -1.625 C 8.539062 -1.144531 7.375 -0.890625 6.28125 -0.859375 C 5.4375 -0.828125 4.441406 -1.050781 3.296875 -1.53125 C 2.148438 -2.019531 1.101562 -2.878906 0.15625 -4.109375 C -0.550781 -5.117188 -1.109375 -6.5625 -1.515625 -8.4375 C -1.929688 -10.320312 -1.617188 -12.773438 -0.578125 -15.796875 C 1.179688 -20.847656 3.203125 -24.425781 5.484375 -26.53125 C 7.773438 -28.632812 9.804688 -29.71875 11.578125 -29.78125 C 13.316406 -29.851562 14.679688 -29.144531 15.671875 -27.65625 C 15.785156 -27.5 15.882812 -27.34375 15.96875 -27.1875 C 16.050781 -27.03125 16.125 -26.820312 16.1875 -26.5625 C 16.300781 -26.25 16.359375 -25.988281 16.359375 -25.78125 C 16.492188 -25.269531 16.503906 -24.65625 16.390625 -23.9375 C 16.285156 -23.226562 16.039062 -22.414062 15.65625 -21.5 C 14.769531 -19.738281 13.601562 -18.332031 12.15625 -17.28125 C 10.707031 -16.238281 9.320312 -15.476562 8 -15 C 6.675781 -14.53125 5.753906 -14.234375 5.234375 -14.109375 C 4.523438 -11.847656 4.234375 -9.757812 4.359375 -7.84375 C 4.484375 -5.925781 4.984375 -4.484375 5.859375 -3.515625 C 6.785156 -2.503906 7.976562 -2.234375 9.4375 -2.703125 L 9.515625 -2.703125 C 11.148438 -3.390625 13.019531 -4.78125 15.125 -6.875 C 17.226562 -8.976562 19.851562 -12.289062 23 -16.8125 C 23.25 -17.082031 23.507812 -17.144531 23.78125 -17 Z M 5.8125 -15.71875 L 5.65625 -15.46875 C 6.382812 -15.65625 7.316406 -15.988281 8.453125 -16.46875 C 9.597656 -16.957031 10.738281 -17.65625 11.875 -18.5625 C 13.019531 -19.46875 13.9375 -20.617188 14.625 -22.015625 C 15.40625 -23.617188 15.5625 -25.015625 15.09375 -26.203125 L 14.609375 -26.8125 C 14.171875 -27.070312 13.695312 -27.082031 13.1875 -26.84375 C 12.363281 -26.550781 11.3125 -25.632812 10.03125 -24.09375 C 8.75 -22.550781 7.34375 -19.757812 5.8125 -15.71875 Z M 5.8125 -15.71875 "/></g></g></g><path fill="#4d3e3e" d="M 113.660156 212.070312 C 110.230469 212.945312 106.554688 214.507812 104.167969 216.53125 C 101.582031 218.722656 100.492188 220.847656 100.296875 222.675781 C 100.089844 224.597656 100.847656 226.230469 102.011719 227.371094 C 106.585938 231.867188 114.238281 231.84375 120.4375 228.546875 C 124.265625 226.515625 127.261719 224.582031 129.59375 222.789062 C 128.933594 224.5625 127.972656 226.335938 126.644531 228.082031 C 121.375 235.015625 114 238.554688 107.054688 240.316406 C 96.574219 242.972656 87.054688 241.59375 87.054688 241.59375 C 86.722656 241.542969 86.414062 241.773438 86.363281 242.109375 C 86.316406 242.441406 86.546875 242.75 86.878906 242.796875 C 86.878906 242.796875 96.625 244.21875 107.351562 241.496094 C 114.542969 239.675781 122.164062 235.992188 127.617188 228.820312 C 129.480469 226.367188 130.667969 223.867188 131.328125 221.378906 C 132.652344 220.234375 133.699219 219.15625 134.515625 218.152344 C 135.601562 216.820312 136.289062 215.609375 136.6875 214.550781 C 136.769531 214.523438 136.851562 214.488281 136.933594 214.453125 C 138.773438 213.621094 139.605469 211.722656 140.003906 209.289062 C 140.539062 206.023438 140.320312 201.757812 141.496094 198.363281 C 143.347656 193.027344 147.75 190.964844 150.902344 191.679688 C 151.230469 191.753906 151.558594 191.546875 151.632812 191.21875 C 151.707031 190.890625 151.5 190.5625 151.171875 190.488281 C 147.578125 189.675781 142.457031 191.878906 140.347656 197.964844 C 139.148438 201.421875 139.347656 205.761719 138.800781 209.09375 C 138.535156 210.730469 138.105469 212.117188 137.109375 212.921875 C 137.332031 211.171875 136.683594 210 135.90625 209.496094 C 135.496094 209.226562 135.039062 209.125 134.597656 209.1875 C 132.792969 209.449219 132.242188 211.253906 132.78125 212.777344 C 133.097656 213.660156 133.773438 214.421875 134.722656 214.6875 C 134.894531 214.738281 135.078125 214.769531 135.269531 214.78125 C 134.890625 215.570312 134.339844 216.4375 133.570312 217.382812 C 133.0625 218.007812 132.460938 218.664062 131.75 219.347656 C 132.433594 214.921875 131.546875 210.597656 129.925781 206.753906 C 127.167969 200.21875 122.261719 195.082031 119.386719 193.207031 C 114.960938 190.320312 111.28125 189.113281 108.515625 189.101562 C 106.539062 189.089844 105 189.679688 103.9375 190.691406 C 102.863281 191.707031 102.257812 193.164062 102.199219 194.929688 C 102.121094 197.410156 103.140625 200.542969 105.464844 203.863281 C 107.703125 207.070312 110.765625 209.972656 113.660156 212.070312 Z M 130.230469 220.714844 C 131.382812 215.984375 130.53125 211.316406 128.804688 207.226562 C 126.160156 200.960938 121.476562 196.027344 118.71875 194.226562 C 114.558594 191.511719 111.113281 190.332031 108.507812 190.320312 C 106.902344 190.3125 105.640625 190.753906 104.773438 191.574219 C 103.917969 192.386719 103.464844 193.558594 103.417969 194.96875 C 103.34375 197.25 104.328125 200.113281 106.460938 203.167969 C 108.855469 206.589844 112.214844 209.671875 115.238281 211.710938 C 116.800781 211.398438 118.261719 211.25 119.453125 211.28125 C 120.617188 211.3125 121.546875 211.527344 122.125 211.898438 C 122.644531 212.226562 122.929688 212.675781 122.976562 213.222656 C 123.039062 214 122.828125 214.546875 122.464844 214.910156 C 121.96875 215.40625 121.09375 215.582031 119.933594 215.328125 C 118.628906 215.042969 116.886719 214.214844 115.003906 212.992188 C 111.476562 213.75 107.464844 215.335938 104.957031 217.460938 C 102.691406 219.378906 101.679688 221.203125 101.507812 222.808594 C 101.34375 224.320312 101.949219 225.605469 102.863281 226.503906 C 107.085938 230.648438 114.148438 230.511719 119.867188 227.472656 C 124.4375 225.042969 127.796875 222.773438 130.230469 220.714844 Z M 116.773438 212.675781 C 118.070312 213.421875 119.25 213.933594 120.195312 214.140625 C 120.566406 214.21875 120.894531 214.253906 121.167969 214.21875 C 121.347656 214.195312 121.5 214.152344 121.605469 214.046875 C 121.757812 213.894531 121.785156 213.648438 121.761719 213.320312 C 121.742188 213.082031 121.539062 212.9375 121.269531 212.816406 C 120.816406 212.617188 120.179688 212.519531 119.417969 212.5 C 118.640625 212.476562 117.742188 212.539062 116.773438 212.675781 Z M 135.738281 213.550781 C 135.808594 213.308594 135.855469 213.078125 135.890625 212.855469 C 136.039062 211.824219 135.820312 211.0625 135.414062 210.65625 C 135.222656 210.464844 134.996094 210.363281 134.773438 210.394531 C 134.027344 210.503906 133.757812 211.15625 133.808594 211.808594 C 133.863281 212.46875 134.21875 213.15625 134.851562 213.441406 C 135.105469 213.558594 135.402344 213.601562 135.738281 213.550781 Z M 135.738281 213.550781 " fill-opacity="1" fill-rule="evenodd"/><g clip-path="url(#8017672423)"><path fill="#4d3e3e" d="M 346.46875 220.636719 C 346.46875 220.671875 345.945312 220.695312 344.953125 220.710938 C 343.957031 220.726562 342.488281 220.753906 340.601562 220.707031 C 339.65625 220.683594 338.605469 220.675781 337.457031 220.625 C 336.308594 220.578125 335.058594 220.535156 333.71875 220.472656 C 332.378906 220.394531 330.945312 220.324219 329.425781 220.226562 C 327.910156 220.117188 326.304688 220.023438 324.621094 219.878906 C 321.253906 219.617188 317.570312 219.273438 313.617188 218.882812 C 309.667969 218.480469 305.449219 218.027344 301.015625 217.535156 C 296.578125 217.046875 291.925781 216.527344 287.101562 216.035156 C 282.273438 215.546875 277.273438 215.078125 272.144531 214.714844 C 267.015625 214.351562 262.003906 214.117188 257.160156 214.035156 C 252.316406 213.949219 247.644531 214.015625 243.199219 214.230469 C 238.757812 214.457031 234.546875 214.855469 230.621094 215.347656 C 229.640625 215.488281 228.679688 215.621094 227.734375 215.757812 C 227.496094 215.789062 227.261719 215.824219 227.027344 215.855469 C 226.796875 215.894531 226.5625 215.933594 226.332031 215.972656 C 225.871094 216.054688 225.414062 216.132812 224.960938 216.210938 C 224.511719 216.289062 224.0625 216.363281 223.617188 216.441406 L 222.957031 216.554688 L 222.304688 216.6875 C 221.445312 216.863281 220.601562 217.035156 219.777344 217.203125 C 218.949219 217.359375 218.152344 217.5625 217.375 217.746094 C 216.597656 217.933594 215.835938 218.113281 215.101562 218.289062 C 213.628906 218.660156 212.253906 219.042969 210.972656 219.421875 C 208.410156 220.183594 206.234375 220.9375 204.476562 221.617188 C 202.722656 222.296875 201.378906 222.882812 200.472656 223.285156 C 199.566406 223.6875 199.089844 223.90625 199.074219 223.871094 C 199.058594 223.84375 199.503906 223.566406 200.386719 223.105469 C 201.265625 222.640625 202.585938 221.992188 204.332031 221.253906 C 206.070312 220.511719 208.242188 219.695312 210.800781 218.871094 C 212.082031 218.457031 213.457031 218.046875 214.929688 217.648438 C 215.667969 217.460938 216.429688 217.265625 217.207031 217.0625 C 217.988281 216.867188 218.785156 216.648438 219.613281 216.480469 C 220.441406 216.296875 221.289062 216.113281 222.152344 215.921875 L 222.804688 215.777344 C 223.027344 215.738281 223.246094 215.695312 223.46875 215.65625 C 223.914062 215.574219 224.363281 215.488281 224.816406 215.40625 C 225.273438 215.320312 225.730469 215.234375 226.195312 215.148438 C 226.425781 215.105469 226.660156 215.0625 226.894531 215.019531 C 227.128906 214.984375 227.363281 214.949219 227.601562 214.910156 C 228.550781 214.765625 229.515625 214.617188 230.5 214.464844 C 234.445312 213.925781 238.675781 213.480469 243.144531 213.214844 C 247.613281 212.960938 252.3125 212.855469 257.179688 212.917969 C 262.046875 212.976562 267.082031 213.195312 272.226562 213.550781 C 277.371094 213.910156 282.386719 214.378906 287.21875 214.878906 C 292.054688 215.378906 296.707031 215.914062 301.140625 216.429688 C 305.574219 216.941406 309.785156 217.425781 313.722656 217.878906 C 317.667969 218.3125 321.339844 218.707031 324.695312 219.019531 C 326.375 219.191406 327.972656 219.3125 329.484375 219.453125 C 331 219.574219 332.425781 219.691406 333.761719 219.796875 C 335.097656 219.890625 336.339844 219.976562 337.484375 220.054688 C 338.628906 220.140625 339.675781 220.183594 340.617188 220.242188 C 342.5 220.367188 343.964844 220.425781 344.957031 220.492188 C 345.949219 220.554688 346.46875 220.601562 346.46875 220.636719 Z M 366.414062 213.222656 C 366.117188 213.324219 365.699219 213.507812 365.148438 213.714844 C 364.871094 213.820312 364.566406 213.9375 364.234375 214.066406 C 363.898438 214.1875 363.535156 214.316406 363.144531 214.457031 C 362.753906 214.605469 362.328125 214.734375 361.878906 214.886719 C 361.433594 215.039062 360.953125 215.171875 360.453125 215.324219 C 359.449219 215.621094 358.339844 215.902344 357.140625 216.179688 C 355.9375 216.441406 354.652344 216.699219 353.285156 216.902344 C 351.914062 217.105469 350.476562 217.296875 348.976562 217.414062 C 347.472656 217.539062 345.917969 217.625 344.320312 217.664062 C 342.722656 217.699219 341.160156 217.683594 339.648438 217.648438 C 338.140625 217.613281 336.683594 217.535156 335.296875 217.453125 C 333.910156 217.375 332.59375 217.269531 331.359375 217.171875 C 330.128906 217.0625 328.976562 216.960938 327.929688 216.867188 C 325.832031 216.671875 324.132812 216.511719 322.953125 216.425781 C 321.777344 216.335938 321.121094 216.316406 321.113281 216.382812 C 321.101562 216.453125 321.742188 216.601562 322.902344 216.808594 C 324.066406 217.019531 325.753906 217.289062 327.847656 217.578125 C 328.894531 217.726562 330.042969 217.871094 331.277344 218.015625 C 332.511719 218.15625 333.832031 218.296875 335.230469 218.410156 C 336.625 218.519531 338.09375 218.625 339.617188 218.679688 C 341.140625 218.738281 342.722656 218.753906 344.34375 218.722656 C 345.964844 218.683594 347.546875 218.589844 349.066406 218.449219 C 350.589844 218.3125 352.054688 218.101562 353.441406 217.871094 C 354.828125 217.636719 356.132812 217.339844 357.347656 217.039062 C 357.953125 216.875 358.535156 216.71875 359.089844 216.550781 C 359.644531 216.375 360.179688 216.222656 360.679688 216.035156 C 361.179688 215.859375 361.660156 215.699219 362.105469 215.515625 C 362.550781 215.335938 362.972656 215.179688 363.355469 215.003906 C 363.742188 214.832031 364.101562 214.675781 364.429688 214.519531 C 364.75 214.359375 365.046875 214.210938 365.3125 214.078125 C 365.578125 213.949219 365.808594 213.816406 366.003906 213.699219 C 366.203125 213.585938 366.367188 213.484375 366.5 213.402344 C 366.765625 213.238281 366.898438 213.136719 366.882812 213.105469 C 366.867188 213.078125 366.707031 213.117188 366.414062 213.222656 Z M 343.816406 209.589844 C 343.617188 208.441406 343.542969 207.144531 343.753906 205.761719 C 343.859375 205.074219 344.046875 204.367188 344.335938 203.667969 C 344.402344 203.492188 344.492188 203.324219 344.570312 203.152344 C 344.660156 202.980469 344.75 202.8125 344.851562 202.640625 C 345.054688 202.296875 345.304688 201.964844 345.605469 201.664062 C 345.914062 201.367188 346.28125 201.089844 346.738281 200.925781 C 347.1875 200.75 347.730469 200.726562 348.210938 200.871094 C 349.179688 201.160156 349.867188 201.945312 350.230469 202.792969 C 350.597656 203.640625 350.714844 204.503906 350.871094 205.316406 C 350.910156 205.523438 350.949219 205.734375 350.988281 205.941406 L 351.042969 206.242188 L 351.046875 206.242188 C 351.046875 206.242188 351.042969 206.242188 351.046875 206.242188 L 351.1875 206.164062 C 351.710938 205.859375 352.210938 205.40625 352.78125 204.976562 C 353.375 204.539062 354.058594 204.164062 354.867188 204.058594 C 355.269531 204.007812 355.714844 204.050781 356.117188 204.222656 C 356.523438 204.390625 356.855469 204.683594 357.09375 204.996094 C 357.332031 205.3125 357.496094 205.648438 357.617188 205.992188 C 357.738281 206.335938 357.8125 206.691406 357.839844 207.042969 C 357.957031 208.457031 357.4375 209.773438 356.722656 210.765625 C 356.003906 211.769531 355.128906 212.519531 354.292969 213.167969 C 352.59375 214.453125 350.890625 215.28125 349.429688 215.789062 C 348.699219 216.046875 348.027344 216.222656 347.4375 216.347656 C 346.84375 216.476562 346.332031 216.546875 345.917969 216.585938 L 345.894531 216.589844 L 345.855469 216.21875 C 345.972656 216.1875 346.097656 216.15625 346.230469 216.121094 C 346.066406 215.832031 345.828125 215.367188 345.535156 214.738281 C 345.265625 214.164062 344.949219 213.449219 344.636719 212.589844 C 344.324219 211.734375 344.011719 210.738281 343.8125 209.589844 Z M 344.582031 209.472656 C 344.71875 210.566406 344.964844 211.550781 345.210938 212.402344 C 345.460938 213.257812 345.714844 213.984375 345.921875 214.582031 C 346.152344 215.25 346.324219 215.75 346.417969 216.070312 C 346.6875 216 346.980469 215.921875 347.296875 215.820312 C 347.859375 215.644531 348.492188 215.429688 349.179688 215.136719 C 350.550781 214.5625 352.140625 213.699219 353.710938 212.425781 C 354.488281 211.785156 355.277344 211.0625 355.878906 210.175781 C 356.179688 209.734375 356.429688 209.253906 356.582031 208.742188 C 356.738281 208.230469 356.808594 207.679688 356.757812 207.140625 C 356.730469 206.875 356.675781 206.609375 356.582031 206.359375 C 356.492188 206.109375 356.371094 205.867188 356.214844 205.671875 C 355.910156 205.269531 355.515625 205.113281 355.003906 205.175781 C 354.492188 205.242188 353.949219 205.515625 353.460938 205.886719 C 352.949219 206.265625 352.429688 206.75 351.757812 207.144531 L 351.597656 207.234375 L 351.324219 207.363281 C 351.230469 207.414062 351.128906 207.4375 351.035156 207.476562 C 350.933594 207.511719 350.839844 207.542969 350.746094 207.566406 L 350.453125 207.652344 L 350.308594 207.691406 L 350.234375 207.714844 L 350.214844 207.71875 L 350.210938 207.699219 L 350.199219 207.664062 L 350.046875 207.101562 C 349.953125 206.570312 349.855469 206.042969 349.761719 205.523438 C 349.605469 204.6875 349.492188 203.886719 349.210938 203.234375 C 349.070312 202.902344 348.894531 202.625 348.667969 202.394531 C 348.441406 202.164062 348.175781 201.988281 347.90625 201.90625 C 347.636719 201.828125 347.363281 201.828125 347.09375 201.925781 C 346.824219 202.015625 346.5625 202.195312 346.332031 202.414062 C 346.097656 202.632812 345.894531 202.894531 345.714844 203.175781 C 345.628906 203.316406 345.542969 203.464844 345.460938 203.609375 C 345.390625 203.761719 345.304688 203.90625 345.242188 204.0625 C 344.972656 204.667969 344.78125 205.296875 344.664062 205.921875 C 344.429688 207.167969 344.445312 208.382812 344.582031 209.476562 Z M 344.582031 209.472656 " fill-opacity="1" fill-rule="nonzero"/></g></svg>